# xmcd
#
# Track frame offsets: 
#        150
#        13998
#        30521
#        40908
#        57059
#        74307
#        92659
#        105015
#        123407
#        137120
#        153742
#        166380
#        182700
#        201201
#        217656
#        229910
#        243602
#        259866
#        275288
#        288661
#
# Disc length: 4079 seconds
#
# Revision: 0
# Processed by: cddbd v1.5.2PL0 Copyright (c) Steve Scherf et al.
# Submitted via: ExactAudioCopy v1.3
#
DISCID=1d0fed14
DTITLE=Elvis Presley - Elvis - Today My Favorites
DYEAR=2015
DGENRE=
TTITLE0=T-R-O-U-B-L-E
TTITLE1=And I Love You So
TTITLE2=Susan When She Tried
TTITLE3=Woman Without Love
TTITLE4=Shake A Hand
TTITLE5=Pieces Of My Life
TTITLE6=Fairytale
TTITLE7=I Can Help
TTITLE8=Bringing It Back
TTITLE9=Green, Green Grass Of Home
TTITLE10=Fairytale (Undubbed Master)
TTITLE11=Green, Green Grass Of Home (Undubbed Master)
TTITLE12=I Can Help (Undubbed Master)
TTITLE13=And I Love You So (Undubbed Master)
TTITLE14=Susan When She Tried  (Undubbed Master)
TTITLE15=T-R-O-U-B-L-E (Undubbed Master)
TTITLE16=Woman Without Love (Undubbed Master)
TTITLE17=Shake A Hand (Undubbed Master)
TTITLE18=Bringing It Back (Undubbed Master)
TTITLE19=Pieces Of My Life (Undubbed Master)
EXTD=
EXTT0=
EXTT1=
EXTT2=
EXTT3=
EXTT4=
EXTT5=
EXTT6=
EXTT7=
EXTT8=
EXTT9=
EXTT10=
EXTT11=
EXTT12=
EXTT13=
EXTT14=
EXTT15=
EXTT16=
EXTT17=
EXTT18=
EXTT19=
PLAYORDER=
